<?xml version="1.0" encoding="utf-8"?>
<!-- Generator: Adobe Illustrator 16.0.0, SVG Export Plug-In . SVG Version: 6.00 Build 0)  -->
<!DOCTYPE svg PUBLIC "-//W3C//DTD SVG 1.1//EN" "http://www.w3.org/Graphics/SVG/1.1/DTD/svg11.dtd">
<svg version="1.1" xmlns="http://www.w3.org/2000/svg" xmlns:xlink="http://www.w3.org/1999/xlink" x="0px" y="0px"
	 width="141.289px" height="141.367px" viewBox="0 0 141.289 141.367" enable-background="new 0 0 141.289 141.367"
	 xml:space="preserve">
<g id="Estrategia">
</g>
<g id="Disparos">
</g>
<g id="Rol">
</g>
<g id="Aventura">
</g>
<g id="Deportes">
</g>
<g id="Iconos">
	<g>
		<g>
			<g>
				<g>
					<path fill="#FFFFFF" d="M121.786,55.583c0-2.2-0.572-4-1.272-4s-1.272-0.602-1.272-1.338s0-2.024,0-2.862
						s-0.716-1.523-1.59-1.523s-1.59,0.715-1.59,1.59s-1.8,1.59-4,1.59H83.494c-2.2,0-4-0.429-4-0.954s-1.8-0.954-4-0.954H66.64
						c-2.2,0-4-0.429-4-0.954s-1.8-0.954-4-0.954H45.017c-2.2,0-4,0.858-4,1.908s-0.697,1.908-1.549,1.908s-2.258,1.654-3.125,3.676
						l-5.845,13.635c-0.867,2.022,0.189,3.676,2.346,3.676s3.331,1.7,2.607,3.777l-8.554,24.561
						c-0.724,2.078,0.484,3.777,2.685,3.777h14.232c2.2,0,4.523-1.722,5.162-3.828l3.468-11.423
						c0.639-2.105,2.962-3.828,5.162-3.828h11.55c2.2,0,4.169-1.792,4.377-3.982l0.479-5.072c0.208-2.19,2.177-3.982,4.377-3.982
						h36.853c2.2,0,4-1.574,4-3.498s0.572-3.498,1.272-3.498s1.272-1.8,1.272-4V55.583z M70.159,76.22
						c-0.205,2.19-2.172,3.982-4.372,3.982h-7.27c-2.2,0-3.476-1.722-2.835-3.827l0.112-0.369c0.641-2.104,1.533-2.859,1.984-1.677
						s1.43,2.422,2.176,2.756s0.895-0.604,0.331-2.083s-0.61-3.204-0.102-3.833s2.724-1.143,4.924-1.143h1.631
						c2.2,0,3.833,1.792,3.628,3.982L70.159,76.22z"/>
				</g>
			</g>
			<g>
				<path fill="#3A3A3A" d="M121.86,59.031c0,2.2-0.8,4-1.5,4s-1.5-1.8-1.5-4v-3.447c0-2.2,0.8-4,1.5-4s1.5,1.8,1.5,4V59.031z"/>
			</g>
			<g>
				<g>
					<path fill="#E8E8E8" d="M41.304,74.499c-2.2-0.031-4.591,1.643-5.315,3.72l-6.375,18.307c-0.724,2.078,0.484,3.777,2.685,3.777
						h9.903c2.2,0,4.523-1.722,5.162-3.828l2.34-7.707c0.639-2.105,1.581-5.578,2.092-7.718l0.595-2.49
						c0.512-2.14-0.87-3.916-3.069-3.947L41.304,74.499z"/>
				</g>
			</g>
			<polygon fill="#FFFFFF" points="77.86,48.395 119.86,48.395 119.86,69.889 77.86,70.027 			"/>
			<g>
				<g>
					<path fill="#E8E8E8" d="M120.514,51.583c-0.7,0-1.272-0.602-1.272-1.338s0-2.024,0-2.862s-0.716-1.523-1.59-1.523
						s-1.59,0.715-1.59,1.59s-0.429,1.59-0.954,1.59s-0.954,0.572-0.954,1.272s-1.8,1.272-4,1.272H84.448c-2.2,0-4-0.572-4-1.272
						s-0.215-1.272-0.477-1.272s-0.477-0.429-0.477-0.954s-0.594-0.954-1.32-0.954s-3.12,0-5.32,0H66.64c-2.2,0-4-0.429-4-0.954
						s-1.8-0.954-4-0.954H45.017c-2.2,0-4,0.858-4,1.908s-0.697,1.908-1.549,1.908s-2.258,1.654-3.125,3.676l-2.846,6.639
						c-0.867,2.022,0.224,3.676,2.424,3.676h36.933c2.2,0,5.8,0,8,0h34.48c2.2,0,4.552,0,5.226,0s1.226-1.8,1.226-4v-3.447
						C121.786,53.383,121.213,51.583,120.514,51.583z M45.719,57.625c-0.318,0-0.115-1.359,0.452-3.021s1.291-3.021,1.609-3.021
						s0.114,1.359-0.452,3.021S46.037,57.625,45.719,57.625z M48.389,57.625c-0.318,0-0.115-1.359,0.452-3.021
						s1.291-3.021,1.609-3.021s0.115,1.359-0.452,3.021S48.707,57.625,48.389,57.625z M51.059,57.625
						c-0.318,0-0.115-1.359,0.452-3.021s1.291-3.021,1.609-3.021s0.115,1.359-0.452,3.021S51.377,57.625,51.059,57.625z
						 M53.449,57.625c-0.318,0-0.115-1.359,0.452-3.021s1.291-3.021,1.609-3.021s0.115,1.359-0.452,3.021
						S53.767,57.625,53.449,57.625z M56.119,57.625c-0.318,0-0.114-1.359,0.452-3.021s1.291-3.021,1.609-3.021
						s0.115,1.359-0.452,3.021S56.437,57.625,56.119,57.625z M60.398,54.604c-0.567,1.662-1.291,3.021-1.609,3.021
						s-0.115-1.359,0.452-3.021s1.291-3.021,1.609-3.021S60.965,52.943,60.398,54.604z"/>
				</g>
			</g>
			<g>
				<g>
					<path fill="#E8E8E8" d="M76.853,63.031h38.48c2.2,0,4.552,0,5.226,0s1.226-1.8,1.226-4v-3.447c0-2.2-0.572-4-1.272-4
						s-1.272-0.602-1.272-1.338s0-2.024,0-2.862s-0.716-1.523-1.59-1.523s-1.59,0.715-1.59,1.59s-0.429,1.59-0.954,1.59
						s-0.954,0.572-0.954,1.272s-1.8,1.272-4,1.272H84.448c-2.2,0-4-0.572-4-1.272s-0.215-1.272-0.477-1.272
						s-0.477-0.429-0.477-0.954s-0.594-0.954-1.32-0.954s-1.32,0-1.32,0"/>
				</g>
			</g>
			<circle fill="#FFFFFF" cx="42.353" cy="84.282" r="1.871"/>
			<circle fill="#FFFFFF" cx="40.077" cy="92.25" r="1.871"/>
		</g>
	</g>
</g>
</svg>
