<?xml version="1.0" encoding="utf-8"?>
<!-- Generator: Adobe Illustrator 16.0.0, SVG Export Plug-In . SVG Version: 6.00 Build 0)  -->
<!DOCTYPE svg PUBLIC "-//W3C//DTD SVG 1.1//EN" "http://www.w3.org/Graphics/SVG/1.1/DTD/svg11.dtd">
<svg version="1.1" xmlns="http://www.w3.org/2000/svg" xmlns:xlink="http://www.w3.org/1999/xlink" x="0px" y="0px"
	 width="141.289px" height="141.367px" viewBox="0 0 141.289 141.367" enable-background="new 0 0 141.289 141.367"
	 xml:space="preserve">
<g id="Estrategia">
</g>
<g id="Disparos">
</g>
<g id="Rol">
</g>
<g id="Aventura">
</g>
<g id="Deportes">
</g>
<g id="Iconos">
	<g>
		<rect x="27.86" y="41.395" fill="#FFFFFF" width="77" height="57"/>
		<polygon opacity="0.4" fill="#D3D3D3" points="93.86,74.656 93.86,72.395 96.693,72.395 97.576,75.082 96.594,76.395 
			94.927,76.395 		"/>
		<polygon opacity="0.4" fill="#D3D3D3" points="98.913,46.143 93.947,48.048 86.292,42.877 79.745,48.135 76.462,50.395 
			68.162,50.395 65.817,56.025 60.86,60.022 60.86,63.395 70.611,63.395 73.469,68.113 75.917,72.295 82.722,67.076 87.892,70.371 
			91.703,72.271 101.499,64.923 103.404,45.056 		"/>
		<polygon opacity="0.4" fill="#D3D3D3" points="67.662,76.532 72.78,72.273 85.115,76.653 82.328,86.236 85.098,95.085 
			74.875,95.464 72.709,90.643 69.566,85.395 65.86,85.395 65.86,78.481 		"/>
		<polygon opacity="0.4" fill="#D3D3D3" points="60.86,51.2 60.86,49.395 63.779,49.395 64.662,51.582 63.681,52.395 62.013,52.395 
					"/>
		<polygon opacity="0.4" fill="#D3D3D3" points="89.647,78.937 93.625,76.653 95.86,79.021 95.86,83.186 95.86,84.349 
			92.753,85.221 88.379,82.314 		"/>
		<polyline opacity="0.4" fill="#D3D3D3" points="47.195,75.791 48.809,72.82 49.54,71.479 57.172,75.791 58.709,80.982 
			54.834,85.419 52.86,89.22 52.86,96.395 48.715,96.395 45.549,84.129 47.322,81.129 45.549,76.069 		"/>
		<polygon opacity="0.4" fill="#D3D3D3" points="44.03,62.775 41.097,55.048 33.766,51.138 38.898,47.229 47.939,49.184 
			52.827,45.762 57.713,54.269 56.248,57.492 51.604,61.397 51.361,66.529 47.696,69.221 		"/>
		<polygon opacity="0.4" fill="#D3D3D3" points="86.86,73.729 86.86,72.395 88.157,72.395 88.744,74.352 88.091,75.395 
			86.981,75.395 		"/>
		<polygon opacity="0.2" points="48.646,40.607 37.959,40.607 27.272,37.77 29.919,70.685 27.272,103.598 37.959,98.49 
			48.265,98.49 46.187,70.685 		"/>
		<polygon opacity="0.2" points="114.473,40.607 103.786,40.607 93.327,40.607 95.747,70.685 93.509,98.49 103.786,98.49 
			114.091,98.49 112.014,70.685 		"/>
		<polygon fill="#E8E8E8" points="45.62,37.77 35.027,37.959 24.245,37.77 26.893,70.685 24.245,103.598 34.649,103.408 
			45.62,103.598 43.161,70.685 		"/>
		<ellipse fill="#D3D3D3" cx="34.932" cy="103.598" rx="10.688" ry="2.837"/>
		<polyline fill="#D3D3D3" points="34.932,103.413 45.62,103.598 43.161,70.685 45.62,37.77 35.027,37.959 		"/>
		<ellipse fill="#D3D3D3" cx="34.932" cy="37.77" rx="10.688" ry="2.838"/>
		<path fill="#E8E8E8" d="M34.932,34.933c5.902,0,10.688,1.271,10.688,2.837c0,1.567-4.785,2.838-10.688,2.838"/>
		<ellipse fill="#E8E8E8" cx="34.933" cy="37.77" rx="7.125" ry="1.893"/>
		<path fill="#D3D3D3" d="M34.932,35.879c3.935,0,7.125,0.847,7.125,1.891c0,1.046-3.19,1.893-7.125,1.893"/>
		<path fill="#E8E8E8" d="M34.932,100.76c5.902,0,10.688,1.271,10.688,2.838c0,1.566-4.785,2.837-10.688,2.837"/>
		<polygon fill="#E8E8E8" points="117.122,37.77 106.529,37.959 95.747,37.77 98.395,70.685 95.747,103.598 106.151,103.408 
			117.122,103.598 114.663,70.685 		"/>
		<ellipse fill="#D3D3D3" cx="106.434" cy="103.598" rx="10.688" ry="2.837"/>
		<polyline fill="#D3D3D3" points="106.434,103.413 117.122,103.598 114.663,70.685 117.122,37.77 106.529,37.959 		"/>
		<ellipse fill="#D3D3D3" cx="106.434" cy="37.77" rx="10.688" ry="2.838"/>
		<path fill="#E8E8E8" d="M106.434,34.933c5.903,0,10.688,1.271,10.688,2.837c0,1.567-4.784,2.838-10.688,2.838"/>
		<ellipse fill="#E8E8E8" cx="106.435" cy="37.77" rx="7.125" ry="1.893"/>
		<path fill="#D3D3D3" d="M106.434,35.879c3.936,0,7.125,0.847,7.125,1.891c0,1.046-3.189,1.893-7.125,1.893"/>
		<path fill="#E8E8E8" d="M106.434,100.76c5.903,0,10.688,1.271,10.688,2.838c0,1.566-4.784,2.837-10.688,2.837"/>
	</g>
</g>
</svg>
