<?xml version="1.0" encoding="utf-8"?>
<!-- Generator: Adobe Illustrator 16.0.0, SVG Export Plug-In . SVG Version: 6.00 Build 0)  -->
<!DOCTYPE svg PUBLIC "-//W3C//DTD SVG 1.1//EN" "http://www.w3.org/Graphics/SVG/1.1/DTD/svg11.dtd">
<svg version="1.1" xmlns="http://www.w3.org/2000/svg" xmlns:xlink="http://www.w3.org/1999/xlink" x="0px" y="0px"
	 width="141.33px" height="141.789px" viewBox="0 0 141.33 141.789" enable-background="new 0 0 141.33 141.789"
	 xml:space="preserve">
<g id="Estrategia">
</g>
<g id="Disparos">
</g>
<g id="Rol">
</g>
<g id="Aventura">
</g>
<g id="Deportes">
</g>
<g id="Iconos">
	<polygon fill="#D18D15" points="52.271,96.896 35.296,92.202 29.68,74.919 40.653,61.145 54.575,65.458 60.874,84.846 	"/>
	<polygon fill="#FFFFFF" points="56.651,112.789 33.949,96.263 25.278,70.016 33.949,43.931 56.651,27.789 84.714,27.789 
		107.416,43.821 116.088,69.82 107.416,96.276 84.714,112.789 	"/>
	<polygon opacity="0.3" fill="#D3D3D3" points="40.653,61.145 39.872,43.548 54.575,32.867 71.067,39.047 71.067,53.475 
		54.575,65.458 	"/>
	<polygon opacity="0.4" fill="#DDDDDD" points="106.839,92.202 89.863,96.896 81.259,84.846 87.56,65.458 101.48,61.145 
		112.454,74.919 	"/>
	<polygon opacity="0.2" fill="#E8E8E8" points="87.56,65.458 71.067,53.475 71.067,39.047 87.56,32.867 102.262,43.548 
		101.48,61.145 	"/>
	<path opacity="0.3" fill="#D3D3D3" d="M89.863,96.896l-9.709,14.694H61.98l-9.71-14.694l8.604-12.051h20.385L89.863,96.896z"/>
	<polygon opacity="0.7" fill="#C1C1C1" points="80.441,111.495 85.124,113.001 107.109,96.907 107.125,92.106 90.15,96.801 	"/>
	<polygon opacity="0.7" fill="#C1C1C1" points="107.868,45.2 102.549,43.452 101.768,61.048 112.741,74.823 116.012,70.292 
		116.088,70.056 	"/>
	<polygon opacity="0.7" fill="#C1C1C1" points="62.268,111.495 52.558,96.801 35.582,92.106 35.602,97.9 56.651,113.299 	"/>
	<path opacity="0.7" fill="#C1C1C1" d="M40.159,43.452l-6.482,2.13c-0.187,0.276-0.365,0.559-0.545,0.839l-7.081,21.517
		c-0.029,0.451-0.057,0.902-0.072,1.358l3.988,5.527L40.94,61.048L40.159,43.452z"/>
	<polygon opacity="0.7" fill="#C1C1C1" points="54.862,65.265 61.161,84.789 81.546,84.789 87.847,65.265 71.354,52.871 	"/>
	<polygon opacity="0.7" fill="#C1C1C1" points="84.063,27.789 58.646,27.789 54.862,32.865 71.354,38.998 87.847,32.89 	"/>
</g>
</svg>
