<?xml version="1.0" encoding="utf-8"?>
<!-- Generator: Adobe Illustrator 16.0.0, SVG Export Plug-In . SVG Version: 6.00 Build 0)  -->
<!DOCTYPE svg PUBLIC "-//W3C//DTD SVG 1.1//EN" "http://www.w3.org/Graphics/SVG/1.1/DTD/svg11.dtd">
<svg version="1.1" xmlns="http://www.w3.org/2000/svg" xmlns:xlink="http://www.w3.org/1999/xlink" x="0px" y="0px"
	 width="141.289px" height="141.395px" viewBox="0 0 141.289 141.395" enable-background="new 0 0 141.289 141.395"
	 xml:space="preserve">
<g id="Estrategia">
</g>
<g id="Disparos">
</g>
<g id="Rol">
</g>
<g id="Aventura">
</g>
<g id="Deportes">
</g>
<g id="Iconos">
	<g>
		<g>
			<polygon fill="#E8E8E8" points="86.591,93.395 83.894,57.937 91.86,55.441 91.86,38.505 91.86,30.395 83.86,30.395 83.86,38.395 
				75.86,38.395 75.86,30.395 64.86,30.395 64.86,38.395 56.86,38.395 56.86,30.395 49.86,30.395 49.86,38.505 49.86,55.441 
				57.633,57.937 54.743,93.395 46.86,93.395 46.86,108.395 95.86,108.395 95.86,93.395 			"/>
			<polyline fill="#FFFFFF" points="69.86,30.395 64.86,30.395 64.86,39.395 56.86,39.395 56.86,30.395 49.86,30.395 49.86,38.544 
				49.86,55.56 57.633,58.419 54.743,94.395 46.86,94.395 46.86,108.395 69.86,108.395 			"/>
			<polyline fill="#D3D3D3" points="69.86,93.395 95.86,93.395 95.86,97.395 69.86,97.395 			"/>
			<polygon fill="#D3D3D3" points="95.591,108.395 69.86,108.395 69.86,111.395 99.325,111.395 			"/>
			<polygon fill="#E8E8E8" points="45.882,108.395 69.86,108.395 69.86,111.395 42.042,111.395 			"/>
			<polyline fill="#D3D3D3" points="95.86,97.395 70.63,97.395 46.86,97.395 			"/>
			<polyline fill="#E8E8E8" points="46.86,93.395 69.86,93.395 69.86,97.395 46.86,97.395 			"/>
			<polyline fill="#D3D3D3" points="69.86,57.395 89.86,57.395 89.86,61.395 69.86,61.395 			"/>
			<polyline fill="#E8E8E8" points="50.86,57.395 69.86,57.395 69.86,61.395 50.86,61.395 			"/>
		</g>
	</g>
</g>
</svg>
