<?xml version="1.0" encoding="utf-8"?>
<!-- Generator: Adobe Illustrator 16.0.0, SVG Export Plug-In . SVG Version: 6.00 Build 0)  -->
<!DOCTYPE svg PUBLIC "-//W3C//DTD SVG 1.1//EN" "http://www.w3.org/Graphics/SVG/1.1/DTD/svg11.dtd">
<svg version="1.1" xmlns="http://www.w3.org/2000/svg" xmlns:xlink="http://www.w3.org/1999/xlink" x="0px" y="0px"
	 width="141.289px" height="141.367px" viewBox="0 0 141.289 141.367" enable-background="new 0 0 141.289 141.367"
	 xml:space="preserve">
<g id="Estrategia">
</g>
<g id="Disparos">
</g>
<g id="Rol">
</g>
<g id="Aventura">
</g>
<g id="Deportes">
</g>
<g id="Iconos">
	<g>
		<g>
			<path fill="#BCBCBC" d="M39.161,112.807"/>
			<polygon fill="#FFFFFF" points="58.566,90.182 54.912,87.811 40.244,112.832 42.793,114.486 45.344,116.142 62.222,92.555 			"/>
			<polygon fill="#FFFFFF" points="59.569,88.414 55.024,85.466 87.689,28.315 102.472,22.306 			"/>
			<polygon fill="#E8E8E8" points="59.569,88.414 64.348,91.516 103.121,38.33 102.472,22.306 			"/>
			<path fill="#A8A8A8" d="M50.23,85.114"/>
			<polyline fill="#D3D3D3" points="42.691,114.42 45.344,116.142 62.222,92.555 58.465,90.115 			"/>
			<path fill="#E8E8E8" d="M66.59,95.734c-0.841,1.296-1.742,1.978-2.141,1.72L49.53,87.771c-0.398-0.258-0.143-1.359,0.698-2.655
				l0,0c0.841-1.296,1.743-1.978,2.141-1.72l14.918,9.683C67.687,93.337,67.431,94.438,66.59,95.734L66.59,95.734z"/>
			<path fill="#D3D3D3" d="M64.449,97.454c0.399,0.258,1.322-0.456,2.162-1.752l0,0c0.841-1.297,1.07-2.484,0.67-2.743l-7.651-4.64
				l-2.743,4.227L64.449,97.454z"/>
			<path fill="#E8E8E8" d="M45.808,116.961c-0.999,1.539-2.373,2.433-3.062,1.986l-2.057-1.336l-2.056-1.334
				c-0.689-0.447-0.434-2.066,0.565-3.605l0,0c0.999-1.539,2.373-2.433,3.063-1.985l4.113,2.67
				C47.063,113.804,46.807,115.422,45.808,116.961L45.808,116.961z"/>
			<path fill="#D3D3D3" d="M40.641,117.581l2.105,1.366c0.689,0.446,2.063-0.447,3.062-1.986l0,0
				c0.999-1.539,1.255-3.157,0.566-3.604l-2.105-1.366"/>
			<circle fill="#FFFFFF" cx="42.465" cy="114.875" r="1.406"/>
			<path fill="#FFFFFF" d="M43.23,113.696c0.651,0.422,0.836,1.293,0.414,1.944c-0.422,0.649-1.292,0.835-1.944,0.412"/>
		</g>
	</g>
</g>
</svg>
